<mxfile host="app.diagrams.net" modified="2021-03-27T00:49:59.316Z" agent="5.0 (Windows NT 6.1; Win64; x64) AppleWebKit/537.36 (KHTML, like Gecko) Chrome/89.0.4389.90 Safari/537.36" etag="Cf4apIkRR50zCYwsTrZ_" version="14.5.1" type="github">
  <diagram id="C5RBs43oDa-KdzZeNtuy" name="Page-1">
    <mxGraphModel dx="964" dy="789" grid="1" gridSize="10" guides="1" tooltips="1" connect="1" arrows="1" fold="1" page="1" pageScale="1" pageWidth="827" pageHeight="1169" math="0" shadow="0">
      <root>
        <mxCell id="WIyWlLk6GJQsqaUBKTNV-0" />
        <mxCell id="WIyWlLk6GJQsqaUBKTNV-1" parent="WIyWlLk6GJQsqaUBKTNV-0" />
        <mxCell id="AMCf581_uWKmBdhSOG7E-4" value="" style="edgeStyle=orthogonalEdgeStyle;rounded=0;orthogonalLoop=1;jettySize=auto;html=1;" edge="1" parent="WIyWlLk6GJQsqaUBKTNV-1" source="AMCf581_uWKmBdhSOG7E-1" target="AMCf581_uWKmBdhSOG7E-3">
          <mxGeometry relative="1" as="geometry" />
        </mxCell>
        <mxCell id="AMCf581_uWKmBdhSOG7E-1" value="START" style="ellipse;whiteSpace=wrap;html=1;aspect=fixed;fillColor=#f8cecc;strokeColor=#b85450;" vertex="1" parent="WIyWlLk6GJQsqaUBKTNV-1">
          <mxGeometry x="310" y="20" width="50" height="50" as="geometry" />
        </mxCell>
        <mxCell id="AMCf581_uWKmBdhSOG7E-9" value="" style="edgeStyle=orthogonalEdgeStyle;rounded=0;orthogonalLoop=1;jettySize=auto;html=1;" edge="1" parent="WIyWlLk6GJQsqaUBKTNV-1" source="AMCf581_uWKmBdhSOG7E-3" target="AMCf581_uWKmBdhSOG7E-5">
          <mxGeometry relative="1" as="geometry" />
        </mxCell>
        <mxCell id="AMCf581_uWKmBdhSOG7E-3" value="&lt;span style=&quot;font-family: &amp;#34;noto_regular&amp;#34; ; font-size: 10pt&quot;&gt;Ingresa la ruta de donde quieres obtener los Links&lt;/span&gt;" style="shape=parallelogram;perimeter=parallelogramPerimeter;whiteSpace=wrap;html=1;fixedSize=1;fillColor=#d5e8d4;strokeColor=#82b366;" vertex="1" parent="WIyWlLk6GJQsqaUBKTNV-1">
          <mxGeometry x="250" y="100" width="170" height="50" as="geometry" />
        </mxCell>
        <mxCell id="AMCf581_uWKmBdhSOG7E-10" value="" style="edgeStyle=orthogonalEdgeStyle;rounded=0;orthogonalLoop=1;jettySize=auto;html=1;" edge="1" parent="WIyWlLk6GJQsqaUBKTNV-1" source="AMCf581_uWKmBdhSOG7E-5" target="AMCf581_uWKmBdhSOG7E-8">
          <mxGeometry relative="1" as="geometry" />
        </mxCell>
        <mxCell id="AMCf581_uWKmBdhSOG7E-18" value="" style="edgeStyle=orthogonalEdgeStyle;rounded=0;orthogonalLoop=1;jettySize=auto;html=1;" edge="1" parent="WIyWlLk6GJQsqaUBKTNV-1" source="AMCf581_uWKmBdhSOG7E-5" target="AMCf581_uWKmBdhSOG7E-11">
          <mxGeometry relative="1" as="geometry" />
        </mxCell>
        <mxCell id="AMCf581_uWKmBdhSOG7E-5" value="&lt;span style=&quot;font-family: &amp;#34;noto_regular&amp;#34; ; font-size: 10pt&quot;&gt;¿La ruta contiene archivos .md?&lt;/span&gt;" style="rhombus;whiteSpace=wrap;html=1;fillColor=#fff2cc;strokeColor=#d6b656;" vertex="1" parent="WIyWlLk6GJQsqaUBKTNV-1">
          <mxGeometry x="275" y="200" width="120" height="80" as="geometry" />
        </mxCell>
        <mxCell id="AMCf581_uWKmBdhSOG7E-57" value="" style="edgeStyle=orthogonalEdgeStyle;rounded=1;orthogonalLoop=1;jettySize=auto;html=1;" edge="1" parent="WIyWlLk6GJQsqaUBKTNV-1" source="AMCf581_uWKmBdhSOG7E-6" target="AMCf581_uWKmBdhSOG7E-13">
          <mxGeometry relative="1" as="geometry" />
        </mxCell>
        <mxCell id="AMCf581_uWKmBdhSOG7E-6" value="&lt;span style=&quot;font-family: &amp;#34;noto_regular&amp;#34; ; font-size: 10pt&quot;&gt;Estos son todos los Links de la ruta ingresada&lt;/span&gt;" style="shape=parallelogram;perimeter=parallelogramPerimeter;whiteSpace=wrap;html=1;fixedSize=1;fillColor=#d5e8d4;strokeColor=#82b366;" vertex="1" parent="WIyWlLk6GJQsqaUBKTNV-1">
          <mxGeometry x="525" y="555" width="150" height="40" as="geometry" />
        </mxCell>
        <mxCell id="AMCf581_uWKmBdhSOG7E-56" value="" style="edgeStyle=orthogonalEdgeStyle;rounded=1;orthogonalLoop=1;jettySize=auto;html=1;" edge="1" parent="WIyWlLk6GJQsqaUBKTNV-1" source="AMCf581_uWKmBdhSOG7E-7" target="AMCf581_uWKmBdhSOG7E-14">
          <mxGeometry relative="1" as="geometry" />
        </mxCell>
        <mxCell id="AMCf581_uWKmBdhSOG7E-7" value="&lt;span style=&quot;font-family: &amp;#34;noto_regular&amp;#34; ; font-size: 10pt&quot;&gt;Todos tus links funcionan&lt;/span&gt;" style="shape=parallelogram;perimeter=parallelogramPerimeter;whiteSpace=wrap;html=1;fixedSize=1;fillColor=#d5e8d4;strokeColor=#82b366;" vertex="1" parent="WIyWlLk6GJQsqaUBKTNV-1">
          <mxGeometry x="670" y="320" width="130" height="40" as="geometry" />
        </mxCell>
        <mxCell id="AMCf581_uWKmBdhSOG7E-8" value="&lt;span style=&quot;font-family: &amp;#34;noto_regular&amp;#34; ; font-size: 10pt&quot;&gt;No hay archivos .md Ingresa otra ruta.&lt;/span&gt;" style="shape=parallelogram;perimeter=parallelogramPerimeter;whiteSpace=wrap;html=1;fixedSize=1;fillColor=#d5e8d4;strokeColor=#82b366;" vertex="1" parent="WIyWlLk6GJQsqaUBKTNV-1">
          <mxGeometry x="60" y="220" width="150" height="40" as="geometry" />
        </mxCell>
        <mxCell id="AMCf581_uWKmBdhSOG7E-19" value="" style="edgeStyle=orthogonalEdgeStyle;rounded=0;orthogonalLoop=1;jettySize=auto;html=1;" edge="1" parent="WIyWlLk6GJQsqaUBKTNV-1" source="AMCf581_uWKmBdhSOG7E-11" target="AMCf581_uWKmBdhSOG7E-17">
          <mxGeometry relative="1" as="geometry" />
        </mxCell>
        <mxCell id="AMCf581_uWKmBdhSOG7E-11" value="&lt;span style=&quot;font-family: &amp;#34;noto_regular&amp;#34; ; font-size: 10pt&quot;&gt;Obtener todos los Links&lt;/span&gt;" style="rounded=0;whiteSpace=wrap;html=1;fillColor=#ffe6cc;strokeColor=#d79b00;" vertex="1" parent="WIyWlLk6GJQsqaUBKTNV-1">
          <mxGeometry x="475" y="220" width="110" height="40" as="geometry" />
        </mxCell>
        <mxCell id="AMCf581_uWKmBdhSOG7E-12" value="&lt;span style=&quot;font-family: &amp;#34;noto_regular&amp;#34; ; font-size: 10pt&quot;&gt;Acumular links&lt;/span&gt;" style="rounded=0;whiteSpace=wrap;html=1;fillColor=#ffe6cc;strokeColor=#d79b00;" vertex="1" parent="WIyWlLk6GJQsqaUBKTNV-1">
          <mxGeometry x="230" y="440" width="100" height="30" as="geometry" />
        </mxCell>
        <mxCell id="AMCf581_uWKmBdhSOG7E-60" value="" style="edgeStyle=orthogonalEdgeStyle;rounded=1;orthogonalLoop=1;jettySize=auto;html=1;exitX=1;exitY=0.5;exitDx=0;exitDy=0;" edge="1" parent="WIyWlLk6GJQsqaUBKTNV-1" source="AMCf581_uWKmBdhSOG7E-13" target="AMCf581_uWKmBdhSOG7E-58">
          <mxGeometry relative="1" as="geometry" />
        </mxCell>
        <mxCell id="AMCf581_uWKmBdhSOG7E-13" value="&lt;span style=&quot;font-family: &amp;#34;noto_regular&amp;#34; ; font-size: 10pt&quot;&gt;Imprimir links Rotos y Ok  con información correspondiente&lt;/span&gt;" style="rounded=0;whiteSpace=wrap;html=1;fillColor=#ffe6cc;strokeColor=#d79b00;" vertex="1" parent="WIyWlLk6GJQsqaUBKTNV-1">
          <mxGeometry x="540" y="640" width="120" height="60" as="geometry" />
        </mxCell>
        <mxCell id="AMCf581_uWKmBdhSOG7E-59" value="" style="edgeStyle=orthogonalEdgeStyle;rounded=1;orthogonalLoop=1;jettySize=auto;html=1;" edge="1" parent="WIyWlLk6GJQsqaUBKTNV-1" source="AMCf581_uWKmBdhSOG7E-14" target="AMCf581_uWKmBdhSOG7E-58">
          <mxGeometry relative="1" as="geometry" />
        </mxCell>
        <mxCell id="AMCf581_uWKmBdhSOG7E-14" value="&lt;span style=&quot;font-family: &amp;#34;noto_regular&amp;#34; ; font-size: 10pt&quot;&gt;Imprimir Likns con informacion correspondiente&lt;/span&gt;" style="rounded=0;whiteSpace=wrap;html=1;fillColor=#ffe6cc;strokeColor=#d79b00;" vertex="1" parent="WIyWlLk6GJQsqaUBKTNV-1">
          <mxGeometry x="675" y="400" width="120" height="60" as="geometry" />
        </mxCell>
        <mxCell id="AMCf581_uWKmBdhSOG7E-15" value="&lt;span style=&quot;font-family: &amp;#34;noto_regular&amp;#34; ; font-size: 10pt&quot;&gt;Acumular links&lt;/span&gt;" style="rounded=0;whiteSpace=wrap;html=1;fillColor=#ffe6cc;strokeColor=#d79b00;" vertex="1" parent="WIyWlLk6GJQsqaUBKTNV-1">
          <mxGeometry x="460" y="440" width="100" height="30" as="geometry" />
        </mxCell>
        <mxCell id="AMCf581_uWKmBdhSOG7E-21" value="" style="edgeStyle=orthogonalEdgeStyle;rounded=0;orthogonalLoop=1;jettySize=auto;html=1;entryX=0.5;entryY=0;entryDx=0;entryDy=0;exitX=0.5;exitY=0;exitDx=0;exitDy=0;" edge="1" parent="WIyWlLk6GJQsqaUBKTNV-1" source="AMCf581_uWKmBdhSOG7E-16" target="AMCf581_uWKmBdhSOG7E-16">
          <mxGeometry relative="1" as="geometry">
            <mxPoint x="440" y="300" as="targetPoint" />
          </mxGeometry>
        </mxCell>
        <mxCell id="AMCf581_uWKmBdhSOG7E-49" value="" style="edgeStyle=orthogonalEdgeStyle;rounded=1;orthogonalLoop=1;jettySize=auto;html=1;entryX=0.5;entryY=0;entryDx=0;entryDy=0;exitX=1;exitY=0.5;exitDx=0;exitDy=0;" edge="1" parent="WIyWlLk6GJQsqaUBKTNV-1" source="AMCf581_uWKmBdhSOG7E-16" target="AMCf581_uWKmBdhSOG7E-15">
          <mxGeometry relative="1" as="geometry" />
        </mxCell>
        <mxCell id="AMCf581_uWKmBdhSOG7E-50" value="" style="edgeStyle=orthogonalEdgeStyle;rounded=1;orthogonalLoop=1;jettySize=auto;html=1;entryX=0.5;entryY=0;entryDx=0;entryDy=0;" edge="1" parent="WIyWlLk6GJQsqaUBKTNV-1" source="AMCf581_uWKmBdhSOG7E-16" target="AMCf581_uWKmBdhSOG7E-12">
          <mxGeometry relative="1" as="geometry" />
        </mxCell>
        <mxCell id="AMCf581_uWKmBdhSOG7E-16" value="&lt;span style=&quot;font-family: &amp;#34;noto_regular&amp;#34; ; font-size: 10pt&quot;&gt;¿Este Link funciona?&lt;/span&gt;" style="rhombus;whiteSpace=wrap;html=1;fillColor=#fff2cc;strokeColor=#d6b656;" vertex="1" parent="WIyWlLk6GJQsqaUBKTNV-1">
          <mxGeometry x="345" y="380" width="115" height="70" as="geometry" />
        </mxCell>
        <mxCell id="AMCf581_uWKmBdhSOG7E-20" value="" style="edgeStyle=orthogonalEdgeStyle;rounded=0;orthogonalLoop=1;jettySize=auto;html=1;" edge="1" parent="WIyWlLk6GJQsqaUBKTNV-1" source="AMCf581_uWKmBdhSOG7E-17" target="AMCf581_uWKmBdhSOG7E-7">
          <mxGeometry relative="1" as="geometry" />
        </mxCell>
        <mxCell id="AMCf581_uWKmBdhSOG7E-23" value="" style="edgeStyle=orthogonalEdgeStyle;rounded=0;orthogonalLoop=1;jettySize=auto;html=1;entryX=0.5;entryY=0;entryDx=0;entryDy=0;" edge="1" parent="WIyWlLk6GJQsqaUBKTNV-1" source="AMCf581_uWKmBdhSOG7E-17" target="AMCf581_uWKmBdhSOG7E-16">
          <mxGeometry relative="1" as="geometry" />
        </mxCell>
        <mxCell id="AMCf581_uWKmBdhSOG7E-17" value="&lt;span style=&quot;font-family: &amp;#34;noto_regular&amp;#34; ; font-size: 10pt&quot;&gt;¿Todos los links del archivo funcionan?&lt;/span&gt;" style="rhombus;whiteSpace=wrap;html=1;fillColor=#fff2cc;strokeColor=#d6b656;" vertex="1" parent="WIyWlLk6GJQsqaUBKTNV-1">
          <mxGeometry x="470" y="300" width="120" height="80" as="geometry" />
        </mxCell>
        <mxCell id="AMCf581_uWKmBdhSOG7E-24" value="YES" style="text;html=1;strokeColor=none;fillColor=none;align=center;verticalAlign=middle;whiteSpace=wrap;rounded=0;" vertex="1" parent="WIyWlLk6GJQsqaUBKTNV-1">
          <mxGeometry x="413.5" y="220" width="40" height="20" as="geometry" />
        </mxCell>
        <mxCell id="AMCf581_uWKmBdhSOG7E-33" value="NO" style="text;html=1;strokeColor=none;fillColor=none;align=center;verticalAlign=middle;whiteSpace=wrap;rounded=0;" vertex="1" parent="WIyWlLk6GJQsqaUBKTNV-1">
          <mxGeometry x="220" y="220" width="40" height="20" as="geometry" />
        </mxCell>
        <mxCell id="AMCf581_uWKmBdhSOG7E-34" value="YES" style="text;html=1;strokeColor=none;fillColor=none;align=center;verticalAlign=middle;whiteSpace=wrap;rounded=0;" vertex="1" parent="WIyWlLk6GJQsqaUBKTNV-1">
          <mxGeometry x="610" y="320" width="40" height="20" as="geometry" />
        </mxCell>
        <mxCell id="AMCf581_uWKmBdhSOG7E-35" value="NO" style="text;html=1;strokeColor=none;fillColor=none;align=center;verticalAlign=middle;whiteSpace=wrap;rounded=0;" vertex="1" parent="WIyWlLk6GJQsqaUBKTNV-1">
          <mxGeometry x="413.5" y="320" width="40" height="20" as="geometry" />
        </mxCell>
        <mxCell id="AMCf581_uWKmBdhSOG7E-39" value="" style="endArrow=classic;html=1;exitX=0.5;exitY=0;exitDx=0;exitDy=0;rounded=1;" edge="1" parent="WIyWlLk6GJQsqaUBKTNV-1" source="AMCf581_uWKmBdhSOG7E-8">
          <mxGeometry width="50" height="50" relative="1" as="geometry">
            <mxPoint x="340" y="460" as="sourcePoint" />
            <mxPoint x="330" y="170" as="targetPoint" />
            <Array as="points">
              <mxPoint x="135" y="170" />
            </Array>
          </mxGeometry>
        </mxCell>
        <mxCell id="AMCf581_uWKmBdhSOG7E-55" value="" style="edgeStyle=orthogonalEdgeStyle;rounded=1;orthogonalLoop=1;jettySize=auto;html=1;" edge="1" parent="WIyWlLk6GJQsqaUBKTNV-1" source="AMCf581_uWKmBdhSOG7E-51" target="AMCf581_uWKmBdhSOG7E-6">
          <mxGeometry relative="1" as="geometry" />
        </mxCell>
        <mxCell id="AMCf581_uWKmBdhSOG7E-65" value="" style="edgeStyle=orthogonalEdgeStyle;rounded=1;orthogonalLoop=1;jettySize=auto;html=1;entryX=0.5;entryY=0;entryDx=0;entryDy=0;" edge="1" parent="WIyWlLk6GJQsqaUBKTNV-1" source="AMCf581_uWKmBdhSOG7E-51" target="AMCf581_uWKmBdhSOG7E-16">
          <mxGeometry relative="1" as="geometry">
            <Array as="points">
              <mxPoint x="200" y="575" />
              <mxPoint x="200" y="360" />
              <mxPoint x="403" y="360" />
            </Array>
          </mxGeometry>
        </mxCell>
        <mxCell id="AMCf581_uWKmBdhSOG7E-51" value="&lt;span style=&quot;font-family: &amp;#34;noto_regular&amp;#34; ; font-size: 10pt&quot;&gt;¿Hay más &lt;br&gt;Link ?&lt;/span&gt;" style="rhombus;whiteSpace=wrap;html=1;fillColor=#fff2cc;strokeColor=#d6b656;" vertex="1" parent="WIyWlLk6GJQsqaUBKTNV-1">
          <mxGeometry x="337.5" y="540" width="115" height="70" as="geometry" />
        </mxCell>
        <mxCell id="AMCf581_uWKmBdhSOG7E-54" value="" style="edgeStyle=orthogonalEdgeStyle;rounded=1;orthogonalLoop=1;jettySize=auto;html=1;" edge="1" parent="WIyWlLk6GJQsqaUBKTNV-1" source="AMCf581_uWKmBdhSOG7E-53" target="AMCf581_uWKmBdhSOG7E-51">
          <mxGeometry relative="1" as="geometry" />
        </mxCell>
        <mxCell id="AMCf581_uWKmBdhSOG7E-53" value="" style="shape=partialRectangle;whiteSpace=wrap;html=1;bottom=1;right=1;left=1;top=0;fillColor=none;routingCenterX=-0.5;" vertex="1" parent="WIyWlLk6GJQsqaUBKTNV-1">
          <mxGeometry x="280" y="470" width="230" height="30" as="geometry" />
        </mxCell>
        <mxCell id="AMCf581_uWKmBdhSOG7E-58" value="END" style="ellipse;whiteSpace=wrap;html=1;aspect=fixed;fillColor=#f8cecc;strokeColor=#b85450;" vertex="1" parent="WIyWlLk6GJQsqaUBKTNV-1">
          <mxGeometry x="710" y="710" width="50" height="50" as="geometry" />
        </mxCell>
        <mxCell id="AMCf581_uWKmBdhSOG7E-61" value="YES" style="text;html=1;strokeColor=none;fillColor=none;align=center;verticalAlign=middle;whiteSpace=wrap;rounded=0;" vertex="1" parent="WIyWlLk6GJQsqaUBKTNV-1">
          <mxGeometry x="470" y="380" width="40" height="20" as="geometry" />
        </mxCell>
        <mxCell id="AMCf581_uWKmBdhSOG7E-62" value="YES" style="text;html=1;strokeColor=none;fillColor=none;align=center;verticalAlign=middle;whiteSpace=wrap;rounded=0;" vertex="1" parent="WIyWlLk6GJQsqaUBKTNV-1">
          <mxGeometry x="270" y="555" width="40" height="20" as="geometry" />
        </mxCell>
        <mxCell id="AMCf581_uWKmBdhSOG7E-63" value="NO" style="text;html=1;strokeColor=none;fillColor=none;align=center;verticalAlign=middle;whiteSpace=wrap;rounded=0;" vertex="1" parent="WIyWlLk6GJQsqaUBKTNV-1">
          <mxGeometry x="290" y="380" width="40" height="20" as="geometry" />
        </mxCell>
        <mxCell id="AMCf581_uWKmBdhSOG7E-64" value="NO" style="text;html=1;strokeColor=none;fillColor=none;align=center;verticalAlign=middle;whiteSpace=wrap;rounded=0;" vertex="1" parent="WIyWlLk6GJQsqaUBKTNV-1">
          <mxGeometry x="460" y="555" width="40" height="20" as="geometry" />
        </mxCell>
      </root>
    </mxGraphModel>
  </diagram>
</mxfile>
